<svg
  width="940"   
  height="911"  
  viewBox="-100 -100 983 959"
  overflow="visible"
  xmlns="http://www.w3.org/2000/svg"
>
  <g
    filter="url(#filter0_f)"
    transform="scale(1.2) translate(-65 -65)"
  
  >
    <path
      d="M93.4972 533C35.1303 445.477 184.439 354.917 192.997 343.5C192.997 343.5 59.4973 208 254.497 220C449.497 232 372.997 93 372.997 93L524.182 244C524.182 244 297 260.294 350.378 436.39C371.073 504.661 417.486 545.591 466.565 570.119C505.807 523.277 545.662 456.455 584.885 363.785C792.538 -126.825 628.238 606.679 628.238 606.679C628.238 606.679 544.077 608.855 466.565 570.119C298.052 771.266 140.839 603.991 93.4972 533Z"
      fill="#70e61c"
    />
  </g>
  <defs>
    <filter
      id="filter0_f"
      x="-200" y="-200"
      width="1200" height="1200"
      filterUnits="userSpaceOnUse"
      color-interpolation-filters="sRGB"
    >
      <feFlood flood-opacity="0" result="BackgroundImageFix"/>
      <feBlend in="SourceGraphic" in2="BackgroundImageFix" mode="normal"/>
      <feGaussianBlur stdDeviation="46.5" result="effect1_foregroundBlur"/>
    </filter>
  </defs>
</svg>
